<?xml version="1.0" encoding="UTF-8" standalone="no"?>
<svg width="506px" height="154px" viewBox="0 0 506 154" version="1.1" xmlns="http://www.w3.org/2000/svg" xmlns:xlink="http://www.w3.org/1999/xlink" xmlns:sketch="http://www.bohemiancoding.com/sketch/ns">
    <!-- Generator: Sketch 3.4 (15588) - http://www.bohemiancoding.com/sketch -->
    <title>Rectangle 1 + logo_gruen_58</title>
    <desc>Created with Sketch.</desc>
    <defs></defs>
    <g id="Page-1" stroke="none" stroke-width="1" fill="none" fill-rule="evenodd" sketch:type="MSPage">
        <g id="Rectangle-1-+-logo_gruen_58" sketch:type="MSLayerGroup" transform="translate(-22.000000, -9.000000)">
            <rect id="Rectangle-1" sketch:type="MSShapeGroup" x="0" y="0" width="544" height="179"></rect>
            <g id="logo_gruen_58" transform="translate(22.000000, 9.000000)" sketch:type="MSShapeGroup">
                <path d="M0.5,66.482 L19.861,66.482 L19.861,144.146 L0.5,144.146 L0.5,66.482 Z" id="Fill-1" fill="#66903F"></path>
                <path d="M0.5,144.146 L19.861,144.146 L19.861,66.482 L0.5,66.482 L0.5,144.146 Z" id="Stroke-2" stroke="#A08831"></path>
                <path d="M99.808,118.039 C99.808,120.323 98.828,122.393 96.219,122.393 C93.282,122.393 92.303,120.323 92.303,118.039 L92.303,96.83 C92.303,94.544 93.282,92.478 96.219,92.478 C98.828,92.478 99.808,94.544 99.808,96.83 L99.808,118.039 L99.808,118.039 Z M73.594,118.367 C73.594,127.286 77.836,135.442 87.735,135.442 C92.303,135.442 96.545,133.703 99.808,130.438 L99.808,139.249 C99.808,143.275 98.177,143.707 95.892,143.707 C93.717,143.707 92.956,141.317 92.956,139.901 L92.956,137.835 L74.247,137.835 C74.247,150.562 84.253,153.5 94.913,153.5 C109.599,153.5 119.169,147.735 119.169,132.073 L119.169,80.406 L100.461,80.406 L100.461,85.519 L100.244,85.519 C96.654,80.515 93.065,78.772 87.735,78.772 C77.618,78.772 73.594,86.931 73.594,95.96 L73.594,118.367 L73.594,118.367 Z" id="Fill-4" fill="#66903F"></path>
                <path d="M99.808,118.039 C99.808,120.323 98.828,122.393 96.219,122.393 C93.282,122.393 92.303,120.323 92.303,118.039 L92.303,96.83 C92.303,94.544 93.282,92.478 96.219,92.478 C98.828,92.478 99.808,94.544 99.808,96.83 L99.808,118.039 L99.808,118.039 Z M73.594,118.367 C73.594,127.286 77.836,135.442 87.735,135.442 C92.303,135.442 96.545,133.703 99.808,130.438 L99.808,139.249 C99.808,143.275 98.177,143.707 95.892,143.707 C93.717,143.707 92.956,141.317 92.956,139.901 L92.956,137.835 L74.247,137.835 C74.247,150.562 84.253,153.5 94.913,153.5 C109.599,153.5 119.169,147.735 119.169,132.073 L119.169,80.406 L100.461,80.406 L100.461,85.519 L100.244,85.519 C96.654,80.515 93.065,78.772 87.735,78.772 C77.618,78.772 73.594,86.931 73.594,95.96 L73.594,118.367 L73.594,118.367 Z" id="Stroke-5" stroke="#A08831"></path>
                <path d="M142.303,123.478 C142.303,119.018 144.478,116.301 148.502,113.798 L148.502,130.438 C148.502,131.854 147.524,133.703 145.13,133.703 C143.39,133.703 142.303,131.964 142.303,130.114 L142.303,123.478 L142.303,123.478 Z M167.863,97.589 C167.863,82.797 159.379,78.772 145.675,78.772 C131.099,78.772 124.356,84.214 124.356,98.247 L124.356,104.985 L142.303,104.985 L142.303,92.371 C142.303,90.413 143.063,88.565 145.24,88.565 C147.414,88.565 148.502,90.518 148.502,92.371 L148.502,100.42 C148.502,104.118 147.524,105.204 136.647,109.338 C124.79,113.689 124.356,116.301 124.356,123.587 L124.356,132.181 C124.356,140.229 128.706,145.777 136.973,145.777 C141.867,145.777 146.327,143.492 149.154,140.557 L149.154,144.146 L167.863,144.146 L167.863,97.589 L167.863,97.589 Z" id="Fill-7" fill="#66903F"></path>
                <path d="M142.303,123.478 C142.303,119.018 144.478,116.301 148.502,113.798 L148.502,130.438 C148.502,131.854 147.524,133.703 145.13,133.703 C143.39,133.703 142.303,131.964 142.303,130.114 L142.303,123.478 L142.303,123.478 Z M167.863,97.589 C167.863,82.797 159.379,78.772 145.675,78.772 C131.099,78.772 124.356,84.214 124.356,98.247 L124.356,104.985 L142.303,104.985 L142.303,92.371 C142.303,90.413 143.063,88.565 145.24,88.565 C147.414,88.565 148.502,90.518 148.502,92.371 L148.502,100.42 C148.502,104.118 147.524,105.204 136.647,109.338 C124.79,113.689 124.356,116.301 124.356,123.587 L124.356,132.181 C124.356,140.229 128.706,145.777 136.973,145.777 C141.867,145.777 146.327,143.492 149.154,140.557 L149.154,144.146 L167.863,144.146 L167.863,97.589 L167.863,97.589 Z" id="Stroke-8" stroke="#A08831"></path>
                <path d="M175.2,66.482 L194.563,66.482 L194.563,144.146 L175.2,144.146 L175.2,66.482 Z" id="Fill-9" fill="#66903F"></path>
                <path d="M175.2,144.146 L194.563,144.146 L194.563,66.482 L175.2,66.482 L175.2,144.146 Z" id="Stroke-10" stroke="#A08831"></path>
                <path d="M392.564,90.848 L398.144,90.848 L398.144,129.135 C398.144,139.032 399.559,144.146 412.611,144.146 L423.27,144.146 L423.27,133.703 L420.551,133.703 C418.812,133.703 418.159,132.941 418.159,131.095 L418.159,90.848 L423.27,90.848 L423.27,80.406 L418.159,80.406 L418.159,70.616 L398.144,70.616 L398.144,80.406 L392.564,80.406 L392.564,90.848" id="Fill-11" fill="#66903F"></path>
                <path d="M392.564,90.848 L398.144,90.848 L398.144,129.135 C398.144,139.032 399.559,144.146 412.611,144.146 L423.27,144.146 L423.27,133.703 L420.551,133.703 C418.812,133.703 418.159,132.941 418.159,131.095 L418.159,90.848 L423.27,90.848 L423.27,80.406 L418.159,80.406 L418.159,70.616 L398.144,70.616 L398.144,80.406 L392.564,80.406 L392.564,90.848 L392.564,90.848 Z" id="Stroke-12" stroke="#A08831"></path>
                <path d="M34.536,100.396 C42.738,91.562 55.672,84.308 59.774,86.834 C64.505,89.669 41.791,95.667 34.536,100.396 L34.536,100.396 Z M85.642,93.772 C87.22,88.41 85.327,79.575 76.494,79.575 C49.363,79.575 10.244,113.33 10.244,133.522 C10.244,141.093 14.029,144.879 22.232,144.879 C44.315,144.879 74.601,122.165 83.434,101.345 C73.337,101.345 66.398,102.29 52.833,103.869 C52.833,114.911 25.071,129.738 24.755,119.012 C24.755,114.595 26.648,110.494 30.119,107.337 C41.791,98.503 71.445,93.459 85.642,93.772 L85.642,93.772 Z" id="Fill-13" fill="#66903F"></path>
                <path d="M34.536,100.396 C42.738,91.562 55.672,84.308 59.774,86.834 C64.505,89.669 41.791,95.667 34.536,100.396 L34.536,100.396 Z M85.642,93.772 C87.22,88.41 85.327,79.575 76.494,79.575 C49.363,79.575 10.244,113.33 10.244,133.522 C10.244,141.093 14.029,144.879 22.232,144.879 C44.315,144.879 74.601,122.165 83.434,101.345 C73.337,101.345 66.398,102.29 52.833,103.869 C52.833,114.911 25.071,129.738 24.755,119.012 C24.755,114.595 26.648,110.494 30.119,107.337 C41.791,98.503 71.445,93.459 85.642,93.772 L85.642,93.772 Z" id="Stroke-14" stroke="#A08831"></path>
                <path d="M281.409,107.901 C288.037,100.763 298.489,94.899 301.804,96.935 C305.63,99.231 287.273,104.075 281.409,107.901 L281.409,107.901 Z M322.712,102.547 C323.985,98.213 322.457,91.071 315.315,91.071 C293.391,91.071 261.777,118.356 261.777,134.669 C261.777,140.788 264.836,143.852 271.464,143.852 C289.31,143.852 313.787,125.492 320.928,108.663 C312.766,108.663 307.157,109.431 296.196,110.706 C296.196,119.63 273.762,131.611 273.505,122.943 C273.505,119.376 275.033,116.061 277.839,113.513 C287.273,106.372 311.235,102.292 322.712,102.547 L322.712,102.547 Z" id="Fill-15" fill="#66903F"></path>
                <path d="M281.409,107.901 C288.037,100.763 298.489,94.899 301.804,96.935 C305.63,99.231 287.273,104.075 281.409,107.901 L281.409,107.901 Z M322.712,102.547 C323.985,98.213 322.457,91.071 315.315,91.071 C293.391,91.071 261.777,118.356 261.777,134.669 C261.777,140.788 264.836,143.852 271.464,143.852 C289.31,143.852 313.787,125.492 320.928,108.663 C312.766,108.663 307.157,109.431 296.196,110.706 C296.196,119.63 273.762,131.611 273.505,122.943 C273.505,119.376 275.033,116.061 277.839,113.513 C287.273,106.372 311.235,102.292 322.712,102.547 L322.712,102.547 Z" id="Stroke-16" stroke="#A08831"></path>
                <path d="M505.199,0.933 C457.096,10.555 451.24,48.203 447.892,65.77 C454.585,63.261 461.279,61.588 468.807,60.333 C474.246,38.581 484.705,9.719 505.199,0.933 L505.199,0.933 Z M434.504,120.989 C444.967,121.407 457.516,120.989 471.317,120.989 C470.481,105.091 471.733,83.341 475.082,70.791 C461.698,70.791 449.566,73.719 439.525,77.065 C436.182,85.432 434.504,105.929 434.504,120.989 L434.504,120.989 Z" id="Fill-17" fill="#66903F"></path>
                <path d="M505.199,0.933 C457.096,10.555 451.24,48.203 447.892,65.77 C454.585,63.261 461.279,61.588 468.807,60.333 C474.246,38.581 484.705,9.719 505.199,0.933 L505.199,0.933 Z M434.504,120.989 C444.967,121.407 457.516,120.989 471.317,120.989 C470.481,105.091 471.733,83.341 475.082,70.791 C461.698,70.791 449.566,73.719 439.525,77.065 C436.182,85.432 434.504,105.929 434.504,120.989 L434.504,120.989 Z" id="Stroke-18" stroke="#A08831"></path>
                <path d="M231.959,144.146 L266.621,144.146 L266.621,131.744 L251.936,131.744 L265.858,95.201 L265.858,80.406 L228.546,80.406 L228.546,92.802 L247.151,92.802 L231.959,130.877 L231.959,144.146" id="Fill-20" fill="#66903F"></path>
                <path d="M231.959,144.146 L266.621,144.146 L266.621,131.744 L251.936,131.744 L265.858,95.201 L265.858,80.406 L228.546,80.406 L228.546,92.802 L247.151,92.802 L231.959,130.877 L231.959,144.146 L231.959,144.146 Z" id="Stroke-21" stroke="#A08831"></path>
                <path d="M228.396,78.502 C228.083,76.923 228.083,76.292 227.766,75.346 C220.825,75.03 214.517,75.346 207.891,76.292 C206.945,77.238 206.63,77.869 205.998,79.133 C212.308,78.185 220.825,77.869 228.396,78.502 L228.396,78.502 Z M205.368,81.024 C197.165,112.572 197.797,147.903 197.797,152.322 C212.938,151.69 219.879,152.322 232.499,152.322 C232.499,134.024 231.867,107.208 228.712,80.391 C221.141,79.76 211.676,80.077 205.368,81.024 L205.368,81.024 Z" id="Fill-22" fill="#66903F"></path>
                <path d="M228.396,78.502 C228.083,76.923 228.083,76.292 227.766,75.346 C220.825,75.03 214.517,75.346 207.891,76.292 C206.945,77.238 206.63,77.869 205.998,79.133 C212.308,78.185 220.825,77.869 228.396,78.502 L228.396,78.502 Z M205.368,81.024 C197.165,112.572 197.797,147.903 197.797,152.322 C212.938,151.69 219.879,152.322 232.499,152.322 C232.499,134.024 231.867,107.208 228.712,80.391 C221.141,79.76 211.676,80.077 205.368,81.024 L205.368,81.024 Z" id="Stroke-23" stroke="#A08831"></path>
                <path d="M392.257,78.502 C391.939,76.923 391.939,76.292 391.625,75.346 C384.686,75.03 378.375,75.346 371.75,76.292 C370.806,77.238 370.489,77.869 369.858,79.133 C376.166,78.185 384.686,77.869 392.257,78.502 L392.257,78.502 Z M369.229,81.024 C361.027,112.572 361.655,147.903 361.655,152.322 C376.8,151.69 383.738,152.322 396.36,152.322 C396.36,134.024 395.727,107.208 392.572,80.391 C385,79.76 375.537,80.077 369.229,81.024 L369.229,81.024 Z" id="Fill-25" fill="#66903F"></path>
                <path d="M392.257,78.502 C391.939,76.923 391.939,76.292 391.625,75.346 C384.686,75.03 378.375,75.346 371.75,76.292 C370.806,77.238 370.489,77.869 369.858,79.133 C376.166,78.185 384.686,77.869 392.257,78.502 L392.257,78.502 Z M369.229,81.024 C361.027,112.572 361.655,147.903 361.655,152.322 C376.8,151.69 383.738,152.322 396.36,152.322 C396.36,134.024 395.727,107.208 392.572,80.391 C385,79.76 375.537,80.077 369.229,81.024 L369.229,81.024 Z" id="Stroke-26" stroke="#A08831"></path>
            </g>
        </g>
    </g>
</svg>